<svg xmlns="http://www.w3.org/2000/svg" width="229" height="79" viewBox="0 0 229 79" fill="none"><path d="M45.062 40.2595C44.363 40.2595 43.793 40.8425 43.793 41.5585C43.793 42.2745 44.363 42.8535 45.062 42.8535C45.763 42.8535 46.334 42.2745 46.334 41.5585C46.334 40.8425 45.763 40.2595 45.062 40.2595Z" fill="#E7DCCB"></path><path d="M66.0171 40.2595C65.3151 40.2595 64.7461 40.8425 64.7461 41.5585C64.7461 42.2745 65.3151 42.8535 66.0171 42.8535C66.7181 42.8535 67.2881 42.2745 67.2881 41.5585C67.2881 40.8425 66.7181 40.2595 66.0171 40.2595Z" fill="#E7DCCB"></path><path d="M109.242 57.1508V10.9398H110.864L111.163 9.63385L92.984 0.0278473L18.3 0.000839233L0.144997 9.47684L0 9.55185L0.333 10.9398H1.949V57.1508L0.0059967 58.1448L0.328995 59.5378H1.936L1.949 78.5898H109.239L109.242 59.5378H110.864L111.185 58.1448L109.242 57.1508ZM81.035 50.2968V10.9398H107.721V56.3758L95.851 50.3188L81.035 50.2968ZM67.476 74.1678H43.66V72.8908H67.476V74.1678ZM64.428 47.1408V50.2808H62.54V47.1408H60.469V50.2808H58.534V47.1408H56.46V50.2808H54.661V47.1408H52.587V50.2808H50.679V47.1408H48.605V50.2808H46.773V47.1408H44.699V50.2808H43.66V45.9338H67.476V50.2808H66.502V47.1408H64.428ZM63.526 71.2898H57.858V58.4828H63.526V71.2898ZM53.328 71.2898H47.617V58.4408H53.328V71.2898ZM66.367 71.2898H65.046V56.8998H56.334V71.2898H54.848V56.8998H46.096V71.2898H44.767V53.8688H66.367V71.2898ZM55.592 5.62584L57.725 9.38884H53.465L55.592 5.62584ZM20.979 5.62584L23.105 9.38884H18.849L20.979 5.62584ZM3.46799 56.3758V10.9398H30.155V50.2968H15.411L3.46799 56.3758ZM42.14 51.8478V57.9858H3.70699L15.722 51.8478H42.14ZM63.361 44.3828V38.1568H56.46V44.3828H54.602V38.1568H47.699V44.3828H42.14V50.2968H31.674V10.9398H79.516V50.2968H68.996V44.3828H63.361ZM53.083 44.3828H49.22V39.7078H53.083V44.3828ZM57.979 39.7088H61.84V44.3838H57.979V39.7088ZM68.996 51.8478H95.449L107.484 57.9858H68.996V51.8478ZM90.23 5.62584L92.358 9.38884H88.1L90.23 5.62584ZM86.344 9.38884H59.479L55.774 2.83484L55.592 2.52385L51.709 9.38884H24.866L21.158 2.83484L20.979 2.52385L17.093 9.38884H3.64L18.621 1.55585H92.569L107.55 9.38884H94.114L90.41 2.83484L90.23 2.52385L86.344 9.38884ZM5.39899 59.5378H16.911V71.2898H5.39899V59.5378ZM20.235 59.5378H31.745V71.2898H20.235V59.5378ZM42.14 77.0348H3.46799V72.8398H42.14V77.0348ZM42.14 71.2898H35.069V59.5378H42.14V71.2898ZM67.476 76.9968H43.66V75.7188H67.476V76.9968ZM79.57 59.5378H91.083V71.2898H79.57V59.5378ZM94.409 59.5378H105.918V71.2898H94.409V59.5378ZM107.716 77.0348H68.996V72.8398H107.716V77.0348ZM68.996 59.5378H76.247V71.2898H68.996V59.5378Z" fill="#E7DCCB"></path><path d="M103.435 13.79H98.293V20.6387H103.435V13.79ZM99.5109 15.04H102.215V19.3979H99.5109V15.04Z" fill="#E7DCCB"></path><path d="M90.4614 13.79H85.3164V20.6387H90.4614V13.79ZM86.5404 15.04H89.2404V19.3979H86.5404V15.04Z" fill="#E7DCCB"></path><path d="M76.1332 13.79H70.9922V20.6387H76.1332V13.79ZM72.2122 15.04H74.9132V19.3979H72.2122V15.04Z" fill="#E7DCCB"></path><path d="M58.1685 13.79H53.0234V20.6387H58.1685V13.79ZM54.2444 15.04H56.9445V19.3979H54.2444V15.04Z" fill="#E7DCCB"></path><path d="M40.2036 13.79H35.0586V20.6387H40.2036V13.79ZM36.2816 15.04H38.9806V19.3979H36.2816V15.04Z" fill="#E7DCCB"></path><path d="M25.8696 13.79H20.7266V20.6387H25.8696V13.79ZM21.9466 15.04H24.6516V19.3979H21.9466V15.04Z" fill="#E7DCCB"></path><path d="M12.8989 13.79H7.75391V20.6387H12.8989V13.79ZM8.97394 15.04H11.6769V19.3979H8.97394V15.04Z" fill="#E7DCCB"></path><path d="M12.8999 25.2608H7.75491V29.5208H7.12891V34.2168H13.5239V29.5208H12.8999V25.2608ZM11.6789 29.5208H8.97591V26.4998H11.6789V29.5208Z" fill="#E7DCCB"></path><path d="M12.8999 38.5206H7.75491V42.7796H7.12891V47.4766H13.5239V42.7796H12.8999V38.5206ZM11.6789 42.7796H8.97591V39.7656H11.6789V42.7796Z" fill="#E7DCCB"></path><path d="M25.8687 25.2608H20.7257V29.5208H20.0977V34.2168H26.4957V29.5208H25.8687V25.2608ZM24.6507 29.5208H21.9457V26.4998H24.6507V29.5208Z" fill="#E7DCCB"></path><path d="M25.8687 38.5206H20.7257V42.7796H20.0977V47.4766H26.4957V42.7796H25.8687V38.5206ZM24.6507 42.7796H21.9457V39.7656H24.6507V42.7796Z" fill="#E7DCCB"></path><path d="M90.4633 25.2608H85.3183V29.5208H84.6953V34.2168H91.0883V29.5208H90.4633V25.2608ZM89.2463 29.5208H86.5423V26.4998H89.2463V29.5208Z" fill="#E7DCCB"></path><path d="M90.4633 38.5206H85.3183V42.7796H84.6953V47.4766H91.0883V42.7796H90.4633V38.5206ZM89.2463 42.7796H86.5423V39.7656H89.2463V42.7796Z" fill="#E7DCCB"></path><path d="M103.436 29.5198V25.2598H98.294V29.5198H97.668V34.2148H104.062V29.5198H103.436ZM102.216 29.5198H99.512V26.4988H102.216V29.5198Z" fill="#E7DCCB"></path><path d="M103.436 38.5206H98.294V42.7796H97.668V47.4766H104.062V42.7796H103.436V38.5206ZM102.216 42.7796H99.512V39.7656H102.216V42.7796Z" fill="#E7DCCB"></path><path d="M40.2017 25.2608H35.0567V29.5208H34.4297V34.2168H40.8257V29.5208H40.2017V25.2608ZM38.9787 29.5208H36.2797V26.4998H38.9787V29.5208Z" fill="#E7DCCB"></path><path d="M40.2017 38.5206H35.0567V42.7796H34.4297V47.4766H40.8257V42.7796H40.2017V38.5206ZM38.9787 42.7796H36.2797V39.7656H38.9787V42.7796Z" fill="#E7DCCB"></path><path d="M58.1655 25.2608H53.0205V29.5208H52.3945V34.2168H58.7895V29.5208H58.1655V25.2608ZM56.9415 29.5208H54.2415V26.4998H56.9415V29.5208Z" fill="#E7DCCB"></path><path d="M76.1303 25.2608H70.9893V29.5208H70.3633V34.2168H76.7573V29.5208H76.1303V25.2608ZM74.9113 29.5208H72.2103V26.4998H74.9113V29.5208Z" fill="#E7DCCB"></path><path d="M76.1303 38.5206H70.9893V42.7796H70.3633V47.4766H76.7573V42.7796H76.1303V38.5206ZM74.9113 42.7796H72.2103V39.7656H74.9113V42.7796Z" fill="#E7DCCB"></path><path d="M159.744 13.9204H156.284C154.299 13.9204 152.621 15.6504 152.621 17.6974V37.6214C152.621 39.6694 154.299 41.3984 156.284 41.3984H159.898C161.804 41.3984 163.412 39.6694 163.412 37.6214V31.6684H161.437V37.6214C161.437 38.6124 160.788 39.6924 159.744 39.6924H156.284C155.241 39.6924 154.594 38.6124 154.594 37.6214V17.6974C154.594 16.6494 155.289 15.4724 156.284 15.4724H159.744C160.743 15.4724 161.437 16.6494 161.437 17.6974V22.8874H163.412V17.6974C163.412 15.6504 161.734 13.9204 159.744 13.9204Z" fill="#E7DCCB"></path><path d="M174.361 13.9204H170.519C168.534 13.9204 166.855 15.6504 166.855 17.6974V37.6214C166.855 39.6694 168.534 41.3984 170.519 41.3984H174.361C176.346 41.3984 178.024 39.6694 178.024 37.6214V17.6974C178.024 15.6504 176.346 13.9204 174.361 13.9204ZM168.829 17.6974C168.829 16.6494 169.523 15.4724 170.519 15.4724H174.361C175.351 15.4724 176.09 16.6494 176.09 17.6974V37.6214C176.09 38.6704 175.351 39.8464 174.361 39.8464H170.519C169.523 39.8464 168.829 38.6704 168.829 37.6214V17.6974Z" fill="#E7DCCB"></path><path d="M189.592 36.8793L185.051 14.2013L185.026 14.0312H181.941V41.2812H183.919V17.7262L188.565 40.3553L188.598 40.5182H190.686L194.987 17.7512V41.2812H196.955V14.0312H193.717L189.592 36.8793Z" fill="#E7DCCB"></path><path d="M207.242 14.1592L207.215 13.9892H204.66L199.652 40.9952L199.605 41.2402H201.475L203.068 32.4262H208.728L210.295 41.0702L210.325 41.2402H212.27L207.242 14.1592ZM208.465 30.8672H203.372L205.939 16.8482L208.465 30.8672Z" fill="#E7DCCB"></path><path d="M172.784 7.43919L173.553 8.21019L174.537 7.22519V8.61719H175.632V7.22519L176.619 8.21019L177.388 7.43919L176.402 6.45419H177.798V5.35619H176.402L177.415 4.34519L176.647 3.57419L175.632 4.59219V3.16819H174.537V4.59219L173.525 3.57419L172.757 4.34519L173.769 5.35619H172.348V6.45419H173.769L172.784 7.43919Z" fill="#E7DCCB"></path><path d="M183.774 6.46005H185.168V5.36205H183.774L184.786 4.35205L184.018 3.58105L183.003 4.59805V3.17405H181.908V4.59805L180.896 3.58105L180.129 4.35205L181.14 5.36205H179.719V6.46005H181.14L180.155 7.44505L180.922 8.21605L181.908 7.23105V8.62305H183.003V7.23105L183.991 8.21605L184.756 7.44505L183.774 6.46005Z" fill="#E7DCCB"></path><path d="M187.082 5.36009V6.45809H188.504L187.518 7.44309L188.287 8.21409L189.271 7.22909V8.62109H190.364V7.22909L191.354 8.21409L192.122 7.44309L191.138 6.45809H192.532V5.36009H191.138L192.149 4.34909L191.381 3.57809L190.364 4.59609V3.17209H189.271V4.59609L188.259 3.57809L187.488 4.34909L188.504 5.36009H187.082Z" fill="#E7DCCB"></path><path d="M168.853 67.9608C168.331 67.5758 167.63 67.3288 167.03 67.3288H166.688C166.084 67.3288 165.408 67.5708 164.874 67.9668C164.381 68.3418 163.993 68.9448 163.853 69.5558C163.753 70.0278 163.695 70.7068 163.695 71.3658C163.695 72.0398 163.753 72.6928 163.853 73.1648C163.993 73.7688 164.381 74.3738 164.876 74.7538C165.411 75.1498 166.088 75.3848 166.688 75.3848H167.03C167.63 75.3848 168.328 75.1448 168.853 74.7538C169.364 74.3738 169.771 73.7478 169.878 73.1648C169.974 72.7088 170.033 72.0348 170.033 71.3658C170.033 70.6968 169.974 70.0218 169.879 69.5558C169.771 68.9728 169.364 68.3468 168.853 67.9608ZM167.03 74.0098H166.688C166.03 74.0098 165.357 73.4098 165.196 72.8698L165.193 72.8588C165.12 72.4408 165.082 71.8848 165.082 71.3658C165.082 70.8308 165.12 70.2728 165.193 69.8508L165.196 69.8448C165.357 69.3048 166.03 68.7048 166.688 68.7048H167.03C167.702 68.7048 168.362 69.3098 168.534 69.8508L168.538 69.8618C168.63 70.3268 168.648 70.9318 168.648 71.3658C168.648 71.9648 168.611 72.4788 168.539 72.8478L168.534 72.8648C168.362 73.4098 167.702 74.0098 167.03 74.0098Z" fill="#E7DCCB"></path><path d="M176.665 74.6599C176.647 74.6279 176.627 74.6009 176.609 74.5689L176.637 74.5629L176.428 74.2479C176.285 74.0279 176.133 73.7989 176.01 73.5789C175.828 73.2999 175.645 72.9849 175.461 72.6739L175.313 72.4229C175.264 72.3309 175.202 72.2409 175.143 72.1499C175.118 72.1179 175.095 72.0849 175.072 72.0479C175.876 71.6029 176.401 70.7409 176.401 69.8359C176.401 68.4619 175.274 67.3429 173.89 67.3429H171.422V75.4199H172.779V72.3469H173.625L175.415 75.3239L175.477 75.4199H177.099L176.938 75.1199C176.876 75.0029 176.769 74.8319 176.665 74.6599ZM172.779 68.7119H173.89C174.5 68.7119 175.014 69.2269 175.014 69.8359C175.014 70.4579 174.511 70.9609 173.89 70.9609H172.779V68.7119Z" fill="#E7DCCB"></path><path d="M182.063 67.9699C181.534 67.5749 180.859 67.3389 180.257 67.3389H177.91V75.3789H180.257C181.555 75.3789 182.823 74.3889 183.077 73.1679C183.177 72.6979 183.233 72.0329 183.233 71.3589C183.233 70.6789 183.177 70.0209 183.077 69.5449C182.941 68.9609 182.545 68.3449 182.063 67.9699ZM180.257 74.0039H179.268V68.7089H180.257C180.938 68.7089 181.624 69.2279 181.726 69.8169C181.804 70.2409 181.846 70.7859 181.846 71.3589C181.846 71.9319 181.804 72.4769 181.726 72.9009C181.624 73.4789 180.923 74.0039 180.257 74.0039Z" fill="#E7DCCB"></path><path d="M184.805 75.4199H186.178V67.2988H184.805V75.4199Z" fill="#E7DCCB"></path><path d="M192.104 72.5108L188.831 67.3458H187.633V75.4238H189.008V70.2098L192.31 75.4238H193.506V67.3458H192.104V72.5108Z" fill="#E7DCCB"></path><path d="M200.002 67.9608C199.477 67.5758 198.779 67.3288 198.175 67.3288H197.834C197.231 67.3288 196.555 67.5708 196.022 67.9668C195.529 68.3418 195.139 68.9448 194.999 69.5558C194.9 70.0278 194.844 70.6858 194.844 71.3658C194.844 72.0448 194.9 72.7038 194.999 73.1648C195.139 73.7688 195.529 74.3738 196.024 74.7538C196.557 75.1498 197.231 75.3848 197.834 75.3848H198.175C198.775 75.3848 199.475 75.1448 200.002 74.7538C200.515 74.3688 200.917 73.7418 201.025 73.1648C201.124 72.7038 201.182 72.0298 201.182 71.3658C201.182 70.7068 201.124 70.0278 201.026 69.5558C200.917 68.9728 200.515 68.3468 200.002 67.9608ZM198.175 74.0098H197.834C197.176 74.0098 196.503 73.4098 196.346 72.8698L196.341 72.8588C196.271 72.4468 196.225 71.8898 196.225 71.3658C196.225 70.8308 196.271 70.2688 196.342 69.8558L196.346 69.8448C196.503 69.3048 197.176 68.7048 197.834 68.7048H198.175C198.848 68.7048 199.509 69.3098 199.684 69.8508L199.686 69.8618C199.776 70.3268 199.796 70.9318 199.796 71.3658C199.796 71.9648 199.758 72.4788 199.686 72.8538L199.684 72.8648C199.509 73.4098 198.848 74.0098 198.175 74.0098Z" fill="#E7DCCB"></path><path d="M141.332 53.9306H138.353V48.6576H137.238V60.9766H138.353V54.8616H141.332V60.9766H142.448V48.6576H141.332V53.9306Z" fill="#E7DCCB"></path><path d="M147.358 48.6093H145.655C144.709 48.6093 143.91 49.4323 143.91 50.4053V59.2343C143.91 60.2083 144.709 61.0312 145.655 61.0312H147.358C148.304 61.0312 149.104 60.2083 149.104 59.2343V50.4053C149.104 49.4323 148.304 48.6093 147.358 48.6093ZM147.358 60.1003H145.655C145.295 60.1003 145.025 59.6433 145.025 59.2343V50.4053C145.025 49.9973 145.295 49.5402 145.655 49.5402H147.358C147.728 49.5402 148.004 49.9973 148.004 50.4053V59.2343C148.004 59.6433 147.728 60.1003 147.358 60.1003Z" fill="#E7DCCB"></path><path d="M149.773 49.5895H151.998V60.9785H153.096V49.5895H155.303V48.6585H149.773V49.5895Z" fill="#E7DCCB"></path><path d="M156.984 54.8606H159.864V53.9296H156.984V49.5876H160.556V48.6566H155.867V60.9766H160.623V60.0466H156.984V54.8606Z" fill="#E7DCCB"></path><path d="M162.444 48.6605H161.328V60.9805H165.661V60.0505H162.444V48.6605Z" fill="#E7DCCB"></path><path d="M174.672 53.2797V50.3987C174.672 49.4367 173.889 48.6527 172.926 48.6527H169.664V60.9727H170.763V55.0257H172.315L174.134 60.9727H175.319L173.495 54.9387C174.096 54.7167 174.672 54.1417 174.672 53.2797ZM173.557 50.3987V53.2797C173.557 53.6737 173.303 54.0947 172.926 54.0947H170.763V49.5837H172.926C173.303 49.5837 173.557 50.0047 173.557 50.3987Z" fill="#E7DCCB"></path><path d="M177.022 54.8606H179.902V53.9296H177.022V49.5876H180.594V48.6566H175.906V60.9766H180.66V60.0466H177.022V54.8606Z" fill="#E7DCCB"></path><path d="M185.452 55.0103C185.128 54.7943 184.609 54.4233 184.137 54.0853C183.799 53.8433 183.484 53.6183 183.281 53.4783L183.219 53.4363C182.735 53.1053 182.514 52.9533 182.514 52.2713V50.4013C182.514 49.9933 182.783 49.5353 183.144 49.5353H184.525C184.886 49.5353 185.155 49.9933 185.155 50.4013V52.9893H186.27V50.4013C186.27 49.4293 185.497 48.6243 184.525 48.6053H183.144C182.206 48.6053 181.414 49.4273 181.414 50.4013V52.4403C181.414 53.2073 181.74 53.7373 182.535 54.2663C183.163 54.6953 183.89 55.2193 184.586 55.7453C185.16 56.1633 185.341 56.3213 185.341 56.8543V59.2303C185.341 59.6313 185.058 60.0953 184.694 60.0953H182.992C182.632 60.0953 182.363 59.6393 182.363 59.2303V56.6423H181.246V59.2303C181.246 60.2013 182.012 61.0073 182.958 61.0273H184.713H184.716C185.666 61.0073 186.44 60.2013 186.44 59.2303V56.8543C186.44 56.4193 186.44 55.6933 185.452 55.0103Z" fill="#E7DCCB"></path><path d="M192.382 48.6605H186.852V49.5915H189.076V60.9805H190.175V49.5915H192.382V48.6605Z" fill="#E7DCCB"></path><path d="M193.845 48.6399L191.559 60.9609H192.632L193.341 57.0519H195.648L196.355 60.9609H197.463L195.177 48.6399H193.845ZM193.519 56.1209L194.51 50.6999L195.487 56.1209H193.519Z" fill="#E7DCCB"></path><path d="M201.914 59.2303C201.914 59.6393 201.645 60.0963 201.284 60.0963H199.752C199.391 60.0963 199.121 59.6393 199.121 59.2303V48.6563H198.004V59.2303C198.004 60.2043 198.805 61.0273 199.752 61.0273H201.284C202.231 61.0273 203.031 60.2043 203.031 59.2303V48.6563H201.914V59.2303Z" fill="#E7DCCB"></path><path d="M209.583 53.2797V50.3987C209.583 49.4367 208.799 48.6527 207.836 48.6527H204.574V60.9727H205.673V55.0257H207.225L209.044 60.9727H210.229L208.404 54.9387C209.007 54.7167 209.583 54.1417 209.583 53.2797ZM208.467 50.3987V53.2797C208.467 53.6737 208.213 54.0947 207.836 54.0947H205.673V49.5837H207.836C208.213 49.5837 208.467 50.0047 208.467 50.3987Z" fill="#E7DCCB"></path><path d="M212.582 48.6399L210.297 60.9609H211.371L212.077 57.0519H214.385L215.093 60.9609H216.199L213.914 48.6399H212.582ZM212.256 56.1209L213.247 50.6999L214.224 56.1209H212.256Z" fill="#E7DCCB"></path><path d="M221.242 58.6207L218.739 48.6527H217.148V60.9727H218.264V51.2787L220.597 60.9727H222.341V48.6527H221.242V58.6207Z" fill="#E7DCCB"></path><path d="M222.953 48.6605V49.5915H225.178V60.9805H226.276V49.5915H228.484V48.6605H222.953Z" fill="#E7DCCB"></path></svg>